<?xml version="1.0" encoding="UTF-8"?>
<svg width="100px" height="100px" viewBox="0 0 100 100" version="1.1" xmlns="http://www.w3.org/2000/svg" xmlns:xlink="http://www.w3.org/1999/xlink">
    <!-- Generator: Sketch 46.2 (44496) - http://www.bohemiancoding.com/sketch -->
    <title>App Icon Copy</title>
    <desc>Created with Sketch.</desc>
    <defs>
        <path d="M0.184780459,28.3248717 C0.184780459,43.8614878 12.5776688,56.45684 27.8638939,56.45684 C43.1507669,56.45684 55.5430073,43.8614878 55.5430073,28.3248717 C55.5430073,12.7882556 43.1507669,0.194220329 27.8638939,0.194220329 C12.5776688,0.194220329 0.184780459,12.7882556 0.184780459,28.3248717 Z" id="path-1"></path>
        <linearGradient x1="96.5959821%" y1="50%" x2="0%" y2="50%" id="linearGradient-3">
            <stop stop-color="#CE373B" offset="0%"></stop>
            <stop stop-color="#CC4200" offset="32.9898756%"></stop>
            <stop stop-color="#50317A" offset="66.1172672%"></stop>
            <stop stop-color="#76A4DD" offset="100%"></stop>
        </linearGradient>
    </defs>
    <g id="--Archive" stroke="none" stroke-width="1" fill="none" fill-rule="evenodd">
        <g id="App-Icon-Copy">
            <rect id="Area" x="1.74086914" y="0" width="98.475" height="100"></rect>
            <g id="Group-3" transform="translate(0.000000, 21.518987)">
                <g id="Bitmap" transform="translate(0.479430, 0.000000)">
                    <g id="Group-2">
                        <mask id="mask-2" fill="white">
                            <use xlink:href="#path-1"></use>
                        </mask>
                        <g id="Mask"></g>
                        <path d="M188.869533,-0.011101059 L154.057129,-0.011101059 C150.902531,-0.011101059 148.203048,2.27330134 147.654309,5.40705807 L146.998944,9.15274344 C145.913169,7.66784908 144.616091,6.33970815 143.113561,5.18996442 C140.806778,3.42501269 138.042929,2.08637781 134.900034,1.21144447 C131.985347,0.400130726 128.747528,-0.011101059 125.27565,-0.011101059 L103.395666,-0.011101059 C100.241069,-0.011101059 97.5415859,2.27330134 96.9928471,5.40705807 L95.3953931,14.5335179 C89.2656429,5.11388326 78.7069727,-1.12280421 66.7270429,-1.12280421 C59.1519772,-1.12280421 51.9579078,1.34524237 45.9217813,6.01570735 C45.6838211,6.20066327 45.4653659,6.40529536 45.2573133,6.61845378 C45.0856698,6.47809715 44.9146766,6.33774053 44.7436834,6.20263089 C44.1968951,5.77434643 43.733978,5.43001359 43.2749619,5.10666867 C41.1775315,3.63554762 39.0183354,2.44448395 36.7720173,1.50527516 C36.0152259,1.19832703 35.5601108,1.02320919 35.1147482,0.864488148 C34.1993167,0.550981301 33.7994656,0.422430376 33.4158686,0.307652765 C33.2273209,0.251247767 33.0335719,0.196154514 32.8391727,0.141717132 C32.4471236,0.0321864973 32.0622262,-0.0681619286 31.6747282,-0.162607506 C31.4614743,-0.213765527 31.2449695,-0.264923548 31.0271645,-0.312802209 C30.6500691,-0.396097961 30.2703731,-0.472179121 29.8880764,-0.543013304 C29.6221591,-0.592859581 29.4180075,-0.630900161 29.2125555,-0.663693764 C28.8263579,-0.727969226 28.4369094,-0.781750736 28.0468107,-0.832252885 C26.9285279,-0.966050786 26.5007197,-0.998844389 26.1054198,-1.02704689 C24.8707575,-1.10575154 24.2589528,-1.12280421 23.6556002,-1.12280421 C17.5310513,-1.12280421 11.5124792,0.533928627 6.24939818,3.6689971 C5.91716416,3.86707046 5.58883112,4.07170255 5.26309874,4.28158161 C3.93091184,5.13749465 2.66439153,6.08326217 1.47979195,7.09658451 C0.114446653,5.6694069 -1.53827132,4.38652114 -3.44130259,3.2840002 C-5.19739671,2.27264547 -7.10692963,1.40361499 -9.12959116,0.694617283 C-11.0761834,0.00726335886 -13.1892178,-0.543013304 -15.3971762,-0.935880671 C-17.6148871,-1.33071565 -19.8924131,-1.53141251 -22.1660381,-1.53141251 C-26.3166878,-1.53141251 -30.2196248,-0.915548637 -33.7656216,0.298470556 C-37.3987404,1.54069225 -40.6014504,3.31351444 -43.2827285,5.56774673 C-46.0719339,7.90527477 -48.2655886,10.7281481 -49.7960757,13.9524152 C-51.343467,17.2147229 -52.126265,20.7702053 -52.126265,24.5231053 C-52.126265,27.7099877 -51.5833777,30.55844 -50.513207,32.9891019 C-49.5750198,35.1193744 -48.3019978,37.0102535 -46.7233986,38.6204195 L-58.0830715,49.2120974 C-59.3983541,50.4385782 -60.1538452,52.1582748 -60.1713996,53.9658582 C-60.188954,55.7727857 -59.4659712,57.5062556 -58.1740945,58.7583153 C-56.5207263,60.3606108 -54.5767347,61.7936913 -52.3960832,63.0182044 C-50.3513161,64.1718834 -48.1479089,65.1543797 -45.8586799,65.9328999 C-43.6227645,66.6930556 -41.248364,67.2879316 -38.8037457,67.701131 C-36.3526258,68.1149862 -33.8670472,68.3242094 -31.4139769,68.3242094 C-28.2444253,68.3242094 -24.9610949,67.9011719 -21.6543587,67.0655909 C-18.1727282,66.1860665 -14.929708,64.7733181 -12.015671,62.866698 C-8.90463427,60.8354622 -6.30917788,58.16016 -4.30732161,54.9194962 C-4.14087952,54.6492769 -3.99199186,54.3679077 -3.83855306,54.0891621 C-2.83860017,55.4468173 -1.75217541,56.7303589 -0.583179776,57.908961 C1.28214196,59.790658 3.37502125,61.4605083 5.63629312,62.8732567 C5.83849426,62.9991841 6.04329606,63.1224881 6.24809785,63.2444803 C11.511829,66.3795487 17.5310513,68.0375933 23.6556002,68.0375933 C24.2602531,68.0375933 24.872708,68.0192289 25.5267734,67.9844677 C26.5026702,67.9123218 26.9311286,67.880184 27.3777915,67.8309936 C28.4362592,67.695884 28.8250575,67.6421025 29.2099549,67.5791388 C29.3473563,67.5564019 29.5744804,67.5155192 29.8913272,67.4564907 C30.2716734,67.3863124 30.6507193,67.3102312 31.0265143,67.2269355 C31.2449695,67.1784009 31.464075,67.1272429 31.68188,67.0747731 C32.0622262,66.9822952 32.4451731,66.8819467 32.8261694,66.7756955 C33.0556775,66.71142 33.239674,66.6596061 33.4223702,66.6045129 C33.7994656,66.4917029 34.1973662,66.3638078 34.635577,66.214269 C34.8676857,66.1362202 34.9925173,66.0935885 35.1166987,66.0496451 C35.5601108,65.8902682 36.0139256,65.7164621 36.5028493,65.517077 C39.0183354,64.4689934 41.1768813,63.2785856 43.1884901,61.8684607 C43.722275,61.492646 44.1910436,61.1443779 44.6494095,60.78496 C44.9133763,60.5777045 45.078518,60.431445 45.2514618,60.2891207 C45.4614649,60.5049027 45.6812205,60.7121582 45.9217813,60.8984259 C51.9572577,65.568235 59.151327,68.0369375 66.7270429,68.0369375 C74.5491711,68.0369375 81.7627455,65.3740969 87.5381561,60.9089199 C87.6688391,62.2022996 88.1701159,63.4445213 89.01663,64.4617788 C90.2512922,65.9466732 92.0750034,66.8052097 93.9975396,66.8052097 L110.76333,66.8052097 C113.793096,66.8052097 116.400905,64.6985486 117.08943,61.7595859 L117.382004,62.5466324 C118.333194,65.1078128 120.758958,66.8052097 123.470793,66.8052097 L143.019287,66.8052097 C143.300808,66.8052097 143.579729,66.7868453 143.854098,66.7501165 C144.120016,66.7842218 144.387883,66.8052097 144.659002,66.8052097 L181.650107,66.8052097 C184.806005,66.8052097 187.506138,64.5188397 188.053576,61.3844271 L190.610023,46.7479861 C190.942907,44.8393984 190.422125,42.8783409 189.186813,41.3941024 C189.014519,41.1868468 188.831173,40.991397 188.637424,40.8097204 L190.985168,27.4909264 C191.091795,26.8855565 191.11195,26.2736278 191.050834,25.6741608 C191.894098,24.7697132 192.488348,23.6186577 192.715255,22.3226545 L195.272352,7.68555763 C195.605886,5.77696992 195.085105,3.81656831 193.849792,2.33101809 C192.61513,0.84612373 190.791419,-0.011101059 188.869533,-0.011101059 Z" id="Fill-1" fill="url(#linearGradient-3)" mask="url(#mask-2)"></path>
                    </g>
                </g>
                <g id="logo_score" transform="translate(0.479430, 0.000000)" fill="#FFFFFF">
                    <path d="M70.9054843,0.12213816 C64.5648972,0.12213816 58.7407821,2.30430975 54.0710956,5.9450039 C59.0889947,12.0022633 62.120263,19.8118625 62.120263,28.330585 C62.120263,36.8499678 59.0889947,44.6602273 54.0710956,50.7168264 C58.7407821,54.3575206 64.5648972,56.5396922 70.9054843,56.5396922 C86.2339835,56.5396922 98.6604948,43.9101678 98.6604948,28.330585 C98.6604948,12.7510023 86.2339835,0.12213816 70.9054843,0.12213816" id="Fill-6"></path>
                    <path d="M27.8680997,40.9898213 C20.9896021,40.9898213 15.4130038,35.3221176 15.4130038,28.330585 C15.4130038,21.3397128 20.9896021,15.672009 27.8680997,15.672009 C31.709482,15.672009 35.1422343,17.442176 37.4270544,20.2205658 L49.1694839,10.2571863 C44.0781744,4.06589336 36.4285419,0.12213816 27.8680997,0.12213816 C12.5389508,0.12213816 0.112439478,12.7510023 0.112439478,28.330585 C0.112439478,43.9101678 12.5389508,56.5396922 27.8680997,56.5396922 C36.4285419,56.5396922 44.0788241,52.595937 49.1694839,46.4039838 L37.4270544,36.4412646 C35.1428839,39.2196543 31.7101317,40.9898213 27.8680997,40.9898213 Z" id="Fill-7"></path>
                </g>
            </g>
        </g>
    </g>
</svg>