<?xml version="1.0" encoding="UTF-8"?>
<svg width="264px" height="77px" viewBox="0 0 264 77" version="1.1" xmlns="http://www.w3.org/2000/svg" xmlns:xlink="http://www.w3.org/1999/xlink">
    <!-- Generator: Sketch 46.2 (44496) - http://www.bohemiancoding.com/sketch -->
    <title>logo_score</title>
    <desc>Created with Sketch.</desc>
    <defs>
        <linearGradient x1="96.5959821%" y1="50%" x2="0%" y2="50%" id="linearGradient-1">
            <stop stop-color="#CE373B" offset="0%"></stop>
            <stop stop-color="#CC4200" offset="32.9898756%"></stop>
            <stop stop-color="#50317A" offset="66.1172672%"></stop>
            <stop stop-color="#76A4DD" offset="100%"></stop>
        </linearGradient>
    </defs>
    <g id="--Archive" stroke="none" stroke-width="1" fill="none" fill-rule="evenodd">
        <g id="logo_score">
            <path d="M252.769809,7.52387037 L217.436205,7.52387037 C214.234378,7.52387037 211.494479,9.81362037 210.937525,12.954713 L210.272348,16.7091667 C209.170317,15.2207963 207.85382,13.8895463 206.328794,12.7371111 C203.987474,10.9680278 201.182246,9.62625926 197.992297,8.74927778 C195.033972,7.93606481 191.747677,7.52387037 188.22382,7.52387037 L166.016256,7.52387037 C162.814429,7.52387037 160.07453,9.81362037 159.517576,12.954713 L157.896205,22.102537 C151.674683,12.6608519 140.957931,6.40956481 128.798642,6.40956481 C121.110165,6.40956481 113.808388,8.88338889 107.681891,13.564787 C107.440368,13.7501759 107.218642,13.955287 107.007474,14.1689444 C106.833261,14.0282593 106.659708,13.8875741 106.486155,13.7521481 C105.93118,13.3228611 105.461332,12.9777222 104.995444,12.6536204 C102.866611,11.1790556 100.675089,9.9852037 98.3951394,9.0437963 C97.6270176,8.73612963 97.1650886,8.56060185 96.7130582,8.40150926 C95.7839211,8.08726852 95.3780836,7.95841667 94.9887435,7.84337037 C94.7973729,7.78683333 94.6007232,7.73161111 94.4034135,7.6770463 C94.0054947,7.56725926 93.6148348,7.46667593 93.2215353,7.37200926 C93.0050886,7.32073148 92.7853424,7.2694537 92.5642765,7.22146296 C92.1815353,7.13797222 91.7961546,7.06171296 91.4081343,6.99071296 C91.1382358,6.94075 90.9310277,6.90262037 90.7224998,6.86975 C90.3305201,6.80532407 89.9352409,6.75141667 89.5393018,6.7007963 C88.4042765,6.56668519 87.9700633,6.53381481 87.568845,6.5055463 C86.3156978,6.42665741 85.6947333,6.40956481 85.0823475,6.40956481 C78.8661039,6.40956481 72.7574237,8.07017593 67.4155455,11.2125833 C67.0783374,11.4111204 66.7450886,11.6162315 66.4144795,11.8266019 C65.0623475,12.6845185 63.7768653,13.6325 62.5745303,14.6481944 C61.1887435,13.2176759 59.5112815,11.931787 57.5797587,10.8266852 C55.7973729,9.81296296 53.8592511,8.94189815 51.8063069,8.23124074 C49.8305709,7.54227778 47.6859008,6.99071296 45.4448856,6.59692593 C43.1939719,6.20116667 40.8823475,6 38.5746825,6 C34.3618907,6 30.4005201,6.61730556 26.8014338,7.83416667 C23.1139211,9.0792963 19.8632612,10.8562685 17.1418399,13.1157778 C14.3108754,15.4587778 12.084378,18.2882593 10.530977,21.5200741 C8.96041858,24.7900185 8.16590082,28.3538241 8.16590082,32.1155093 C8.16590082,35.3098519 8.71691604,38.1649722 9.80310894,40.6013241 C10.7553424,42.7365833 12.0474237,44.6318889 13.6496572,46.2458241 L2.11991097,56.8622963 C0.784936349,58.0916481 0.0181343182,59.8153704 0.000317059325,61.6271852 C-0.0175001996,63.4383426 0.716306907,65.1758704 2.02752518,66.4308611 C3.70564701,68.0369074 5.67874346,69.4733426 7.89204295,70.7007222 C9.96742366,71.8571019 12.2038196,72.8418981 14.5273221,73.6222407 C16.796713,74.3841759 19.2066622,74.9804444 21.6878805,75.3946111 C24.1756978,75.8094352 26.6984896,76.0191481 29.1882866,76.0191481 C32.4052917,76.0191481 35.737779,75.5951204 39.0940226,74.7575833 C42.627779,73.876 45.9193526,72.4599444 48.8770176,70.5488611 C52.0346318,68.5128704 54.6689465,65.8313056 56.7007739,62.5830556 C56.8697079,62.3122037 57.0208247,62.0301759 57.1765607,61.7507778 C58.1914846,63.1116111 59.2941749,64.3981574 60.4806724,65.5795185 C62.3739211,67.4656204 64.4981343,69.1393796 66.7932612,70.5554352 C66.9984896,70.6816574 67.2063577,70.80525 67.4142257,70.9275278 C72.7567638,74.0699352 78.8661039,75.7318611 85.0823475,75.7318611 C85.6960531,75.7318611 86.3176775,75.7134537 86.9815353,75.6786111 C87.9720429,75.6062963 88.406916,75.5740833 88.8602663,75.5247778 C89.934581,75.3893519 90.3292003,75.3354444 90.7198602,75.2723333 C90.8593188,75.2495432 91.0898433,75.2085648 91.4114338,75.1493981 C91.7974744,75.0790556 92.1821952,75.0027963 92.5636166,74.9193056 C92.7853424,74.8706574 93.0077282,74.8193796 93.2287942,74.766787 C93.6148348,74.6740926 94.003515,74.5735093 94.3902155,74.4670093 C94.6231597,74.4025833 94.809911,74.3506481 94.9953424,74.2954259 C95.3780836,74.1823519 95.7819414,74.0541574 96.226713,73.9042685 C96.4622968,73.826037 96.5889973,73.7833056 96.7150379,73.7392593 C97.1650886,73.5795093 97.6256978,73.4052963 98.1219414,73.2054444 C100.675089,72.1549074 102.865952,70.961713 104.907677,69.548287 C105.449454,69.1715926 105.925241,68.8225093 106.390469,68.46225 C106.658388,68.2545093 106.826002,68.1079074 107.001535,67.96525 C107.214683,68.181537 107.437728,68.3892778 107.681891,68.5759815 C113.807728,73.2567222 121.109505,75.7312037 128.798642,75.7312037 C136.737881,75.7312037 144.059454,73.0621296 149.921332,68.5865 C150.053972,69.8829074 150.562754,71.128037 151.421941,72.1476759 C152.675089,73.6360463 154.526104,74.4965926 156.477424,74.4965926 L173.494226,74.4965926 C176.569353,74.4965926 179.216205,72.385 179.915038,69.4391574 L180.211992,70.2280463 C181.177424,72.7952222 183.639505,74.4965926 186.391941,74.4965926 L206.233109,74.4965926 C206.518845,74.4965926 206.801941,74.4781852 207.080419,74.4413704 C207.350317,74.4755556 207.622195,74.4965926 207.897373,74.4965926 L245.442297,74.4965926 C248.645444,74.4965926 251.386002,72.2048704 251.941637,69.0631204 L254.536358,54.3924167 C254.874226,52.4793611 254.345647,50.513713 253.09184,49.026 C252.916967,48.8182593 252.730875,48.6223519 252.534226,48.44025 L254.917119,35.0902778 C255.025342,34.4834907 255.045799,33.8701296 254.983769,33.2692593 C255.839657,32.3626944 256.442804,31.2089444 256.673109,29.9099074 L259.26849,15.2385463 C259.607018,13.3254907 259.078439,11.3605 257.824632,9.87147222 C256.571485,8.38310185 254.720469,7.52387037 252.769809,7.52387037 Z" id="Fill-1" fill="url(#linearGradient-1)"></path>
            <path d="M262.05,4.46182407 C263.303807,5.95085185 263.832386,7.91584259 263.493858,9.82889815 L260.898477,24.5002593 C260.668173,25.7992963 260.065025,26.9530463 259.209137,27.8596111 C259.271168,28.4604815 259.250711,29.0738426 259.142487,29.6806296 L256.759594,43.0306019 C256.956244,43.2127037 257.142335,43.4086111 257.317208,43.6163519 C258.571015,45.1040648 259.099594,47.069713 258.761726,48.9827685 L256.167005,63.6534722 C255.611371,66.7952222 252.870812,69.0869444 249.667665,69.0869444 L212.122741,69.0869444 C211.847563,69.0869444 211.575685,69.0659074 211.305787,69.0317222 C211.02731,69.068537 210.744213,69.0869444 210.458477,69.0869444 L190.61731,69.0869444 C187.864873,69.0869444 185.402792,67.3855741 184.43736,64.8183981 L184.140406,64.0295093 C183.441574,66.9753519 180.794721,69.0869444 177.719594,69.0869444 L160.702792,69.0869444 C158.751472,69.0869444 156.900457,68.2263981 155.64731,66.7380278 C154.788122,65.7183889 154.27934,64.4732593 154.146701,63.1768519 C148.284822,67.6524815 140.963249,70.3215556 133.02401,70.3215556 C125.334873,70.3215556 118.033096,67.8470741 111.907259,63.1663333 C111.663096,62.9796296 111.440051,62.7718889 111.226904,62.5556019 C111.051371,62.6982593 110.883756,62.8448611 110.704264,62.9842315 L110.615838,63.0526019 C110.150609,63.4128611 109.674822,63.7619444 109.212893,64.0834167 L109.133046,64.1386389 C107.09132,65.5520648 104.900457,66.7452593 102.628426,67.684037 C102.535381,67.7228241 102.441675,67.7589815 102.34731,67.7957963 C101.851066,67.9956481 101.390457,68.1698611 100.940406,68.3296111 C100.814365,68.3736574 100.687665,68.4163889 100.560964,68.458463 L100.452081,68.4946204 C100.00731,68.6445093 99.6034518,68.7727037 99.2207107,68.8857778 C99.0352792,68.941 98.8485279,68.9929352 98.6617766,69.044213 L98.6155838,69.0573611 C98.2288832,69.1638611 97.840203,69.2644444 97.4541624,69.3571389 C97.2330964,69.4097315 97.0107107,69.4610093 96.7889848,69.5096574 C96.4075635,69.5931481 96.0228426,69.6694074 95.636802,69.73975 L95.565533,69.7535556 C95.3603046,69.7910278 95.1544162,69.8285 94.9452284,69.8626852 C94.5545685,69.9257963 94.1599492,69.9797037 93.7699492,70.0290093 L93.6340102,70.0474167 C93.4518782,70.0717407 93.2697462,70.0954074 93.0856345,70.1151296 C92.6322843,70.1644352 92.1974112,70.1966481 91.7942132,70.2255741 L91.6892893,70.2341204 C91.528934,70.2472685 91.3685787,70.2597593 91.2069036,70.268963 C90.5430457,70.3038056 89.9214213,70.322213 89.3077157,70.322213 C83.0914721,70.322213 76.982132,68.660287 71.6395939,65.5178796 C71.4317259,65.3956019 71.2238579,65.2720093 71.0186294,65.145787 C68.7235025,63.7297315 66.5992893,62.0559722 64.7060406,60.1698704 C63.5195431,58.9885093 62.4168528,57.701963 61.4019289,56.3411296 C61.2461929,56.6205278 61.0950761,56.9025556 60.9261421,57.1734074 C58.8943147,60.4216574 56.26,63.1032222 53.1023858,65.139213 C50.1447208,67.0502963 46.8531472,68.4663519 43.3193909,69.3479352 C39.9631472,70.1854722 36.6306599,70.6095 33.4136548,70.6095 C30.9238579,70.6095 28.401066,70.399787 25.9132487,69.984963 C23.4320305,69.5707963 21.0220812,68.9745278 18.7526904,68.2125926 C16.4291878,67.43225 14.1927919,66.4474537 12.1174112,65.2910741 C9.90411168,64.0636944 7.93101523,62.6272593 6.2528934,61.021213 C4.94167513,59.7662222 4.20786802,58.0286944 4.22568528,56.217537 C4.24350254,54.4057222 5.01030457,52.682 6.34527919,51.4526481 L17.8750254,40.8361759 C16.2727919,39.2222407 14.9807107,37.3269352 14.0284772,35.1916759 C12.9422843,32.7553241 12.391269,29.9002037 12.391269,26.7058611 C12.391269,22.9441759 13.1857868,19.3803704 14.7563452,16.1104259 C16.3097462,12.8786111 18.5362437,10.0491296 21.3672081,7.70612963 C24.0886294,5.44662037 27.3392893,3.66964815 31.026802,2.42451852 C34.6258883,1.20765741 38.5872589,0.590351852 42.8000508,0.590351852 C45.1077157,0.590351852 47.4193401,0.791518519 49.6702538,1.18727778 C51.911269,1.58106481 54.0559391,2.13262963 56.0316751,2.82159259 C58.0846193,3.53225 60.0227411,4.40331481 61.8051269,5.41703704 C63.7366497,6.52213889 65.4141117,7.80802778 66.7998985,9.2385463 C68.0022335,8.22285185 69.2877157,7.27487037 70.6398477,6.4169537 C70.9704569,6.20658333 71.3037056,6.00147222 71.6409137,5.80293519 C76.9827919,2.66052778 83.0914721,0.999916667 89.3077157,0.999916667 C89.9201015,0.999916667 90.541066,1.01700926 91.2075635,1.05316667 C91.3685787,1.06171296 91.528934,1.0742037 91.6892893,1.08735185 L91.7942132,1.09589815 C92.1954315,1.12416667 92.6296447,1.15703704 93.0862944,1.20634259 C93.2671066,1.22606481 93.4472589,1.24907407 93.6274112,1.27339815 L93.7646701,1.29114815 C94.1606091,1.34176852 94.5558883,1.39567593 94.947868,1.46010185 C95.1563959,1.49297222 95.3636041,1.53110185 95.5714721,1.56988889 L95.6335025,1.58106481 C96.0215228,1.65206481 96.4069036,1.72832407 96.7896447,1.81181481 C97.0107107,1.85980556 97.2304569,1.91108333 97.4469036,1.96236111 C97.840203,2.05702778 98.2308629,2.15761111 98.6287817,2.26739815 C98.8260914,2.32196296 99.0227411,2.37718519 99.2141117,2.43372222 C99.6034518,2.54876852 100.009289,2.67762037 100.45934,2.82948148 L100.558985,2.86235185 C100.688325,2.90508333 100.817005,2.94781481 100.938426,2.99186111 C101.390457,3.1509537 101.852386,3.32648148 102.353249,3.52764815 C102.443655,3.56249074 102.533401,3.59864815 102.620508,3.63414815 C104.900457,4.57555556 107.09198,5.76940741 109.142944,7.18875 L109.220812,7.24397222 C109.686701,7.56807407 110.156548,7.91321296 110.621117,8.27281481 L110.711523,8.3425 C110.885076,8.47792593 111.058629,8.61861111 111.232843,8.7592963 C111.44401,8.54563889 111.665736,8.34052778 111.907259,8.15513889 C118.033756,3.47374074 125.335533,0.999916667 133.02401,0.999916667 C145.183299,0.999916667 155.900051,7.2512037 162.121574,16.6928889 L163.742944,7.54506481 C164.299898,4.40397222 167.039797,2.11422222 170.241624,2.11422222 L192.449188,2.11422222 C195.973046,2.11422222 199.25934,2.52641667 202.217665,3.33962963 C205.407614,4.21661111 208.212843,5.55837963 210.554162,7.32746296 C212.079188,8.47989815 213.395685,9.81114815 214.497716,11.2995185 L215.162893,7.54506481 C215.719848,4.40397222 218.459746,2.11422222 221.661574,2.11422222 L256.995178,2.11422222 C258.945838,2.11422222 260.796853,2.9734537 262.05,4.46182407 Z M89.3077157,7.57399074 C73.7374112,7.57399074 61.1142132,20.1482222 61.1142132,35.6604074 C61.1142132,51.1725926 73.7374112,63.7481389 89.3077157,63.7481389 C104.87868,63.7481389 117.501218,51.1725926 117.501218,35.6604074 C117.501218,20.1482222 104.87868,7.57399074 89.3077157,7.57399074 Z" id="Combined-Shape" fill="#000000"></path>
            <path d="M186.725228,31.6489074 C189.064569,31.6489074 190.895787,31.2538056 192.220203,30.4695185 C193.54198,29.6839167 194.203198,28.4282685 194.203198,26.7058611 C194.203198,25.1359722 193.656142,24.0591389 192.56269,23.4733889 C191.468579,22.8915833 189.980508,22.599037 188.098477,22.599037 L184.818122,22.599037 L183.214569,31.6489074 L186.725228,31.6489074 Z M190.61665,62.5128704 L183.214569,42.8235185 L181.077817,42.8235185 L177.719594,62.5128704 L160.702792,62.5128704 L170.241624,8.6882963 L192.449188,8.6882963 C195.399594,8.6882963 198.069543,9.01897222 200.461675,9.67637963 C202.853147,10.3344444 204.887614,11.2975463 206.566396,12.5656852 C208.245178,13.8344815 209.53,15.3912222 210.420863,17.2411667 C211.310406,19.0904537 211.756497,21.207963 211.756497,23.5877778 C211.756497,28.0509167 210.69934,31.7251667 208.588985,34.6138148 C206.47665,37.5031204 203.590914,39.476 199.927157,40.541 L210.458477,62.5128704 L190.61665,62.5128704 L190.61665,62.5128704 Z" id="Fill-2" fill="#FFFFFF"></path>
            <polyline id="Fill-3" fill="#FFFFFF" points="212.122741 62.5128704 221.661574 8.6882963 256.995178 8.6882963 254.399137 23.3583426 235.702893 23.3583426 234.787614 28.5301667 252.645127 28.5301667 250.202843 42.2167315 232.34533 42.2167315 231.352843 47.8415093 252.263046 47.8415093 249.668325 62.5128704 212.122741 62.5128704"></polyline>
            <path d="M50.813198,24.729037 C49.9480711,23.7146574 48.8288832,22.8915833 47.4556345,22.2598148 C46.081066,21.6234444 44.4788325,21.3092037 42.6476142,21.3092037 C41.2222335,21.3092037 39.9380711,21.6109537 38.7938071,22.2216852 C37.6488832,22.8284722 37.0767513,23.7659352 37.0767513,25.0340741 C37.0767513,26.0484537 37.5578173,26.8327407 38.521269,27.3889074 C39.4847208,27.9490185 40.9028426,28.5301667 42.778934,29.1369537 C45.1103553,29.9002037 47.1883756,30.7620648 49.0116751,31.7251667 C50.8369543,32.6882685 52.3837563,33.8038889 53.6507614,35.0680833 C54.9177665,36.3362222 55.8937563,37.7792315 56.578731,39.4036852 C57.2630457,41.0241944 57.6048731,42.8491574 57.6048731,44.8766019 C57.6048731,48.3214167 56.8446701,51.262 55.3255838,53.697037 C53.8051777,56.1274722 51.8677157,58.1049537 49.5112183,59.6235648 C47.1547208,61.1467778 44.5567005,62.2623981 41.7171574,62.9710833 C38.8769543,63.6791111 36.11,64.0354259 33.4136548,64.0354259 C31.2769036,64.0354259 29.1408122,63.8579259 27.0027411,63.5016111 C24.8659898,63.1446389 22.817665,62.63975 20.8597462,61.9823426 C18.9011675,61.3249352 17.0554315,60.5104074 15.3271574,59.5473056 C13.5975635,58.5881481 12.0969543,57.4981667 10.8240102,56.2799907 L22.882335,45.1776944 C23.4927411,45.8909815 24.2291878,46.52275 25.0949746,47.0782593 C25.9594416,47.6383704 26.8621827,48.1051296 27.8045178,48.4870833 C28.745533,48.869037 29.6990863,49.1701296 30.6658376,49.3995648 C31.6319289,49.6283426 32.5227919,49.7427315 33.3377665,49.7427315 C35.1175127,49.7427315 36.5415736,49.4501852 37.6106091,48.869037 C38.6796447,48.283287 39.2128426,47.4345741 39.2128426,46.3189537 C39.2128426,45.4064722 38.7674112,44.5965463 37.877868,43.8885185 C36.9870051,43.1798333 35.3214213,42.4415648 32.879797,41.6816019 C30.9449746,41.0748148 29.1269543,40.366787 27.4230964,39.5522593 C25.7179188,38.7423333 24.2430457,37.7660833 22.9964975,36.6248241 C21.7492893,35.4875093 20.7706599,34.1174722 20.0586294,32.5226019 C19.3459391,30.9231296 18.9902538,28.9883796 18.9902538,26.7058611 C18.9902538,23.9184537 19.5630457,21.3348426 20.7073096,18.9504259 C21.8522335,16.5706111 23.480203,14.5043796 25.5912183,12.7563333 C27.7022335,11.0043426 30.2197462,9.63825 33.1463959,8.64950926 C36.0717259,7.66142593 39.2900508,7.16442593 42.8000508,7.16442593 C44.7335533,7.16442593 46.6413198,7.33009259 48.5233503,7.66142593 C50.4053807,7.99210185 52.1864467,8.44637037 53.8658883,9.03146296 C55.5446701,9.61261111 57.0960914,10.3088056 58.5208122,11.1187315 C59.9448731,11.9332593 61.1406091,12.8457407 62.1073604,13.8555185 L50.813198,24.729037" id="Fill-5" fill="#FFFFFF"></path>
            <path d="M133.02401,7.57399074 C126.583401,7.57399074 120.667411,9.74672222 115.924061,13.3716667 C121.021117,19.4027222 124.100203,27.178537 124.100203,35.6604074 C124.100203,44.1429352 121.021117,51.9194074 115.924061,57.9498056 C120.667411,61.57475 126.583401,63.7474815 133.02401,63.7474815 C148.594315,63.7474815 161.216853,51.1725926 161.216853,35.6604074 C161.216853,20.1482222 148.594315,7.57399074 133.02401,7.57399074" id="Fill-6" fill="#FFFFFF"></path>
            <path d="M99.0174619,43.736 C96.6972589,46.5023704 93.2103553,48.2648796 89.3077157,48.2648796 C82.3207107,48.2648796 76.6561421,42.6216944 76.6561421,35.6604074 C76.6561421,28.6997778 82.3207107,23.0565926 89.3077157,23.0565926 C93.2096954,23.0565926 96.696599,24.8191019 99.0174619,27.5854722 L110.945127,17.6651944 C105.773503,11.5006852 98.003198,7.57399074 89.3077157,7.57399074 C73.7367513,7.57399074 61.1142132,20.1482222 61.1142132,35.6604074 C61.1142132,51.1725926 73.7367513,63.7474815 89.3077157,63.7474815 C98.003198,63.7474815 105.774162,59.820787 110.945127,53.6556204 L99.0174619,43.736" id="Fill-7" fill="#FFFFFF"></path>
        </g>
    </g>
</svg>