<?xml version="1.0" encoding="utf-8"?>
<!-- Generator: Adobe Illustrator 21.0.2, SVG Export Plug-In . SVG Version: 6.00 Build 0)  -->
<svg version="1.1" id="Layer_1" xmlns="http://www.w3.org/2000/svg" xmlns:xlink="http://www.w3.org/1999/xlink" x="0px" y="0px"
	 viewBox="0 0 445 42.6" style="enable-background:new 0 0 445 42.6;" xml:space="preserve">
<style type="text/css">
	.st0{fill-rule:evenodd;clip-rule:evenodd;fill:url(#SVGID_1_);}
	.st1{fill-rule:evenodd;clip-rule:evenodd;fill:url(#SVGID_2_);}
	.st2{fill-rule:evenodd;clip-rule:evenodd;fill:url(#SVGID_3_);}
	.st3{fill-rule:evenodd;clip-rule:evenodd;fill:url(#SVGID_4_);}
	.st4{fill-rule:evenodd;clip-rule:evenodd;fill:url(#SVGID_5_);}
	.st5{clip-path:url(#SVGID_7_);fill:url(#SVGID_8_);stroke:url(#SVGID_9_);stroke-width:0.25;stroke-miterlimit:10;}
	.st6{opacity:0.3;}
	.st7{fill-rule:evenodd;clip-rule:evenodd;fill:#00AEEF;}
	.st8{fill-rule:evenodd;clip-rule:evenodd;fill:url(#SVGID_10_);}
	.st9{fill-rule:evenodd;clip-rule:evenodd;fill:url(#SVGID_11_);}
	.st10{fill:url(#SVGID_12_);}
	.st11{fill-rule:evenodd;clip-rule:evenodd;}
	.st12{fill-rule:evenodd;clip-rule:evenodd;fill:#FFFFFF;}
	.st13{opacity:0.1;fill-rule:evenodd;clip-rule:evenodd;fill:#00AEEF;}
	.st14{fill-rule:evenodd;clip-rule:evenodd;fill:url(#SVGID_13_);}
	.st15{fill-rule:evenodd;clip-rule:evenodd;fill:url(#SVGID_14_);}
	.st16{fill-rule:evenodd;clip-rule:evenodd;fill:url(#SVGID_15_);}
	.st17{fill-rule:evenodd;clip-rule:evenodd;fill:url(#SVGID_16_);}
	.st18{fill-rule:evenodd;clip-rule:evenodd;fill:url(#SVGID_17_);}
	.st19{fill-rule:evenodd;clip-rule:evenodd;fill:url(#SVGID_18_);}
	.st20{fill-rule:evenodd;clip-rule:evenodd;fill:url(#SVGID_19_);}
	.st21{fill-rule:evenodd;clip-rule:evenodd;fill:url(#SVGID_20_);}
	.st22{fill-rule:evenodd;clip-rule:evenodd;fill:url(#SVGID_21_);}
	.st23{fill-rule:evenodd;clip-rule:evenodd;fill:url(#SVGID_22_);}
	.st24{fill-rule:evenodd;clip-rule:evenodd;fill:url(#SVGID_23_);}
	.st25{fill-rule:evenodd;clip-rule:evenodd;fill:url(#SVGID_24_);}
	.st26{fill-rule:evenodd;clip-rule:evenodd;fill:url(#SVGID_25_);}
	.st27{fill-rule:evenodd;clip-rule:evenodd;fill:url(#SVGID_26_);}
	.st28{fill-rule:evenodd;clip-rule:evenodd;fill:url(#SVGID_27_);}
	.st29{fill-rule:evenodd;clip-rule:evenodd;fill:url(#SVGID_28_);}
	.st30{fill-rule:evenodd;clip-rule:evenodd;fill:url(#SVGID_29_);}
	.st31{fill-rule:evenodd;clip-rule:evenodd;fill:url(#SVGID_30_);}
	.st32{fill-rule:evenodd;clip-rule:evenodd;fill:url(#SVGID_31_);}
	.st33{fill-rule:evenodd;clip-rule:evenodd;fill:url(#SVGID_32_);}
	.st34{fill-rule:evenodd;clip-rule:evenodd;fill:url(#SVGID_33_);}
	.st35{fill-rule:evenodd;clip-rule:evenodd;fill:url(#SVGID_34_);}
	.st36{fill-rule:evenodd;clip-rule:evenodd;fill:url(#SVGID_35_);}
	.st37{fill-rule:evenodd;clip-rule:evenodd;fill:url(#SVGID_36_);}
	.st38{fill-rule:evenodd;clip-rule:evenodd;fill:url(#SVGID_37_);}
	.st39{fill-rule:evenodd;clip-rule:evenodd;fill:url(#SVGID_38_);}
	.st40{fill-rule:evenodd;clip-rule:evenodd;fill:url(#SVGID_39_);}
	.st41{fill-rule:evenodd;clip-rule:evenodd;fill:url(#SVGID_40_);}
	.st42{fill-rule:evenodd;clip-rule:evenodd;fill:url(#SVGID_41_);}
	.st43{fill-rule:evenodd;clip-rule:evenodd;fill:url(#SVGID_42_);}
	.st44{fill-rule:evenodd;clip-rule:evenodd;fill:#F1F2F2;}
	.st45{fill-rule:evenodd;clip-rule:evenodd;fill:url(#SVGID_43_);}
	.st46{clip-path:url(#SVGID_45_);fill:#F1F2F2;stroke:#F1F2F2;stroke-width:0.25;stroke-miterlimit:10;}
	.st47{fill-rule:evenodd;clip-rule:evenodd;fill:url(#SVGID_46_);}
	.st48{fill-rule:evenodd;clip-rule:evenodd;fill:url(#SVGID_47_);}
	.st49{fill-rule:evenodd;clip-rule:evenodd;fill:url(#SVGID_48_);}
	.st50{fill-rule:evenodd;clip-rule:evenodd;fill:url(#SVGID_49_);}
	.st51{fill-rule:evenodd;clip-rule:evenodd;fill:url(#SVGID_50_);}
	.st52{fill-rule:evenodd;clip-rule:evenodd;fill:url(#SVGID_51_);}
	.st53{fill-rule:evenodd;clip-rule:evenodd;fill:url(#SVGID_52_);}
	.st54{fill-rule:evenodd;clip-rule:evenodd;fill:url(#SVGID_53_);}
	.st55{fill-rule:evenodd;clip-rule:evenodd;fill:url(#SVGID_54_);}
	.st56{fill-rule:evenodd;clip-rule:evenodd;fill:url(#SVGID_55_);}
	.st57{fill-rule:evenodd;clip-rule:evenodd;fill:url(#SVGID_56_);}
	.st58{fill-rule:evenodd;clip-rule:evenodd;fill:url(#SVGID_57_);}
	.st59{fill-rule:evenodd;clip-rule:evenodd;fill:url(#SVGID_58_);}
	.st60{fill-rule:evenodd;clip-rule:evenodd;fill:url(#SVGID_59_);}
	.st61{fill-rule:evenodd;clip-rule:evenodd;fill:url(#SVGID_60_);}
	.st62{clip-path:url(#SVGID_62_);fill:url(#SVGID_63_);}
	.st63{clip-path:url(#SVGID_65_);fill:url(#SVGID_66_);}
	.st64{fill-rule:evenodd;clip-rule:evenodd;fill:url(#SVGID_67_);}
	.st65{fill-rule:evenodd;clip-rule:evenodd;fill:url(#SVGID_68_);}
	.st66{fill-rule:evenodd;clip-rule:evenodd;fill:url(#SVGID_69_);}
	.st67{fill-rule:evenodd;clip-rule:evenodd;fill:url(#SVGID_70_);}
	.st68{fill-rule:evenodd;clip-rule:evenodd;fill:url(#SVGID_71_);}
	.st69{fill-rule:evenodd;clip-rule:evenodd;fill:url(#SVGID_72_);}
	.st70{fill-rule:evenodd;clip-rule:evenodd;fill:url(#SVGID_73_);}
	.st71{fill-rule:evenodd;clip-rule:evenodd;fill:url(#SVGID_74_);}
	.st72{fill-rule:evenodd;clip-rule:evenodd;fill:url(#SVGID_75_);}
	.st73{fill-rule:evenodd;clip-rule:evenodd;fill:url(#SVGID_76_);}
	.st74{fill-rule:evenodd;clip-rule:evenodd;fill:url(#SVGID_77_);}
	.st75{fill-rule:evenodd;clip-rule:evenodd;fill:url(#SVGID_78_);}
	.st76{fill-rule:evenodd;clip-rule:evenodd;fill:url(#SVGID_79_);}
	.st77{fill-rule:evenodd;clip-rule:evenodd;fill:url(#SVGID_80_);}
	.st78{fill-rule:evenodd;clip-rule:evenodd;fill:url(#SVGID_81_);}
	.st79{fill-rule:evenodd;clip-rule:evenodd;fill:url(#SVGID_82_);}
	.st80{clip-path:url(#SVGID_84_);fill:url(#SVGID_85_);}
	.st81{fill:#FFFFFF;}
</style>
<g>
	<path class="st12" d="M337.8,30.9c4.6,0,6.1-3.2,7-7.1h-2.2c-3,0-8,0.5-8,4.6C334.7,30.1,336.2,30.9,337.8,30.9 M343.9,31.2
		L343.9,31.2c-2.2,2.7-4.3,4.2-7.8,4.2c-4.3,0-7.4-2.4-7.4-6.8c0-7.9,8.8-8.5,14.6-8.5h2.2c0.2-0.7,0.2-1.3,0.2-2
		c0-2.4-2.6-3.1-4.8-3.1c-2.7,0-5.4,0.7-7.8,1.9l0.9-5c2.6-0.9,5.3-1.4,8.1-1.4c4.8,0,9.3,1.8,9.3,7.4c0,3.2-2.4,12.6-2.9,17.1h-5.2
		L343.9,31.2"/>
	<path class="st12" d="M183.2,10.9h4.5l1.1-4.9l6.7-2.2l-1.5,7.1h5.6l-1,4.6h-5.6l-2.3,10.5c-0.1,0.6-0.3,1.4-0.3,2.3
		c0,1.4,1,2.3,2.4,2.3c1.1,0,2.2-0.2,3-0.6l-1.1,4.8c-1.1,0.2-2.3,0.6-3.3,0.6c-4.2,0-7.2-1.7-7.2-6.3c0-1.9,0.4-3.7,0.8-5.6
		l1.8-8.1h-4.5L183.2,10.9"/>
	<path class="st12" d="M204.2,0.6h6.2l-1.3,6h-6.2L204.2,0.6 M202,10.9h6.2l-5.1,23.9h-6.2L202,10.9"/>
	<path class="st12" d="M226.9,16.4c-1.2-0.8-2.8-1.2-4.5-1.2c-5,0-7.7,4.7-7.7,9.2c0,3.1,1,6.2,5.3,6.2c1.5,0,3.4-0.4,5-1.2
		l-0.7,4.9c-1.9,0.9-3.9,1.1-6,1.1c-6.2,0-10.1-4.1-10.1-10.3c0-8.4,5.5-14.7,14.1-14.7c2.3,0,4.5,0.4,6.2,0.9L226.9,16.4"/>
	<polyline class="st12" points="233.7,0 239.9,0 235.8,19.6 235.9,19.6 244.5,10.9 252.6,10.9 241.1,21.9 248.3,34.9 241.3,34.9 
		235.2,22.2 235.1,22.2 232.4,34.9 226.3,34.9 233.7,0 	"/>
	<path class="st12" d="M274.9,10.9h4.5l1.1-4.9l6.7-2.2l-1.5,7.1h5.6l-1,4.6h-5.6l-2.3,10.5c-0.1,0.6-0.3,1.4-0.3,2.3
		c0,1.4,1,2.3,2.4,2.3c1.1,0,2.2-0.2,3-0.6l-1.1,4.8c-1.1,0.2-2.3,0.6-3.3,0.6c-4.2,0-7.2-1.7-7.2-6.3c0-1.9,0.4-3.7,0.8-5.6
		l1.8-8.1h-4.5L274.9,10.9"/>
	<path class="st12" d="M272.8,19.5c0-6.1-3.9-9.1-9.8-9.1c-7.8,0-13.6,7.2-13.6,14.6c0,7.1,4.6,10.5,11.5,10.5
		c2.5,0,5.2-0.6,7.6-1.3l0.8-4.9c-2.3,1.1-4.8,1.7-7.3,1.7c-4,0-6.3-1.4-6.6-5.2h0c0-0.2,0-0.4,0-0.7c0,0,0-0.1,0-0.1c0,0,0,0,0-0.1
		h0c0-1.6,0.4-3.3,1-4.8c1.2-3,2.9-5.2,6.5-5.2c2.6,0,3.9,1.4,3.9,4c0,0.6,0,1.1-0.1,1.6h-8.5c-0.5,1.9-0.6,3.1-0.7,4.3h14.6
		C272.6,23.1,272.8,21.3,272.8,19.5"/>
	<path class="st12" d="M293.8,13.6c0.2-0.9,0.4-1.9,0.5-2.7h5.8l-0.6,3.2h0.1c1.7-2.5,4.4-3.8,7.3-3.8c2.8,0,5.7,1.7,6.1,4.6h0.1
		c1.6-3.1,5-4.6,8.4-4.6c3.6,0,6.6,2.9,6.6,6.6c0,2.1-0.6,4.6-1.1,6.5l-2.5,11.4h-6.2l2.5-11.7c0.3-1.4,0.8-3.7,0.8-5.1
		c0-1.8-1.3-2.9-2.9-2.9c-4.3,0-5.4,5-6.2,8.3l-2.5,11.4h-6.2l2.5-11.7c0.3-1.4,0.8-3.7,0.8-5.1c0-1.8-1.3-2.9-2.9-2.9
		c-4.2,0-5.4,5.1-6.2,8.3l-2.5,11.4h-6.2L293.8,13.6"/>
	<path class="st12" d="M369.8,15.8c-0.7-0.4-2.4-0.9-4.1-0.9c-1.8,0-4.2,0.5-4.2,2.4c0,3,8,4.1,8,10c0,6.2-5.4,8.1-10.7,8.1
		c-2.5,0-5-0.4-7.3-1.4l1.3-5c1.8,1,3.5,1.9,5.9,1.9c2.1,0,4.3-0.7,4.3-2.6c0-3.9-8.1-4.2-8.1-10.2c0-5.6,5.4-7.6,10.3-7.6
		c2.3,0,4.6,0.4,5.8,0.7L369.8,15.8"/>
	<path class="st12" d="M373.7,10.9h4.5l1.1-4.9l6.7-2.2l-1.5,7.1h5.6l-1,4.6h-5.6l-2.3,10.5c-0.1,0.6-0.3,1.4-0.3,2.3
		c0,1.4,1,2.3,2.4,2.3c1.1,0,2.2-0.2,3-0.6l-1.1,4.8c-1.1,0.2-2.3,0.6-3.3,0.6c-4.2,0-7.2-1.7-7.2-6.3c0-1.9,0.4-3.7,0.8-5.6
		l1.8-8.1h-4.5L373.7,10.9"/>
	<path class="st12" d="M415.8,14.1c0.2-1,0.4-2.1,0.6-3.2h5.9l-0.8,4.5h0.1c1.1-2.6,4.2-5.1,7-5.1c0.8,0,1.6,0,2.4,0.2l-1.3,6.1
		c-0.7-0.2-1.6-0.4-2.4-0.4c-4.4,0-6.5,4-7.3,7.8l-2.2,10.7h-6.2L415.8,14.1"/>
	<path class="st12" d="M411.5,19.5c0-6.1-3.9-9.1-9.8-9.1c-7.8,0-13.6,7.2-13.6,14.6c0,7.1,4.6,10.5,11.5,10.5
		c2.5,0,5.2-0.6,7.6-1.3l0.8-4.9c-2.3,1.1-4.8,1.7-7.3,1.7c-4,0-6.3-1.4-6.6-5.2h0c0-0.2,0-0.4,0-0.7c0,0,0-0.1,0-0.1c0,0,0,0,0-0.1
		h0c0-1.6,0.4-3.3,1-4.8c1.2-3,2.9-5.2,6.5-5.2c2.6,0,3.9,1.4,3.9,4c0,0.6,0,1.1-0.1,1.6h-8.5c-0.5,1.9-0.6,3.1-0.7,4.3h14.6
		C411.2,23.1,411.5,21.3,411.5,19.5"/>
	<path class="st12" d="M438.7,14.4h1.2c0.8,0,1.3-0.2,1.3-1c0-0.7-0.6-0.9-1.3-0.9h-1.2V14.4z M437.6,11.7h2.4
		c1.4,0,2.2,0.6,2.2,1.8c0,1-0.6,1.7-1.6,1.7l1.8,2.8h-1.1l-1.8-2.8h-0.9V18h-1V11.7z M439.7,19.5c2.5,0,4.3-2,4.3-4.6
		c0-2.6-1.9-4.6-4.3-4.6c-2.5,0-4.4,2-4.4,4.6C435.3,17.5,437.2,19.5,439.7,19.5z M439.7,9.5c2.9,0,5.4,2.4,5.4,5.4
		c0,3-2.4,5.4-5.4,5.4c-3,0-5.4-2.4-5.4-5.4C434.3,11.9,436.7,9.5,439.7,9.5z"/>
	<path class="st81" d="M2.6,19.4v2.2h0.1c1-1.5,2.7-2.7,5.6-2.7c4.5,0,7.9,3.4,7.9,8.2c0,5-3.6,8.3-7.7,8.3c-2.7,0-4.7-1.1-5.8-2.7
		H2.6v10H0V19.4H2.6z M7.8,21.2c-3,0-5.4,2.4-5.4,6c0,3.4,2.6,5.9,5.5,5.9c3.7,0,5.5-3.1,5.5-6S11.6,21.2,7.8,21.2z"/>
	<path class="st81" d="M26.6,18.9c4.8,0,8.3,3.5,8.3,8.2c0,4.5-3.5,8.3-8.3,8.3c-4.6,0-8.2-3.6-8.2-8.3
		C18.4,22.4,21.9,18.9,26.6,18.9z M26.6,33c3.2,0,5.5-2.6,5.5-5.9c0-3.2-2.2-5.8-5.5-5.8c-3.2,0-5.5,2.5-5.5,5.8
		C21.1,30.6,23.6,33,26.6,33z"/>
	<path class="st81" d="M46.3,22.5h-0.1c-0.1,1.1-0.3,2.1-0.6,3.3l-2.2,9h-3.4l-4-15.4h2.7L41,29.5c0.2,0.9,0.4,2,0.6,3.1h0.1
		c0.2-1.1,0.5-2.2,0.8-3.2l2.4-9.9h2.9l2.5,10.1c0.2,0.9,0.4,1.9,0.7,3.1h0.1c0.2-1.2,0.4-2.2,0.6-3.1l2.4-10.1h2.6l-4,15.4h-3.3
		l-2.2-9C46.7,24.6,46.5,23.6,46.3,22.5z"/>
	<path class="st81" d="M57.9,26.9c0-4.2,3-8,7.7-8c5.6,0,7.6,4.7,7.6,8c0,0.3,0,0.8-0.1,1H60.6c0,2.7,2.4,5.1,5,5.1
		c2.3,0,3.7-0.9,4.9-2.7l2.1,1.3c-1.5,2.3-3.9,3.6-6.9,3.6C61,35.4,57.9,31.7,57.9,26.9z M70.4,25.7c-0.3-2.4-2.1-4.5-4.9-4.5
		c-2.9,0-4.6,2.2-4.9,4.5H70.4z"/>
	<path class="st81" d="M82.8,21.6c-2.2,0-3.9,1.5-3.9,5.1v8.2h-2.6V19.4h2.6v2.3h0.1c0.6-1.5,2-2.8,4.1-2.8c0.6,0,1,0.1,1.5,0.2
		L84,21.8C83.7,21.7,83.2,21.6,82.8,21.6z"/>
	<path class="st81" d="M85.3,26.9c0-4.2,3-8,7.7-8c5.6,0,7.6,4.7,7.6,8c0,0.3,0,0.8-0.1,1H88c0,2.7,2.4,5.1,5,5.1
		c2.3,0,3.7-0.9,4.9-2.7l2.1,1.3c-1.5,2.3-3.9,3.6-6.9,3.6C88.4,35.4,85.3,31.7,85.3,26.9z M97.8,25.7c-0.3-2.4-2.1-4.5-4.9-4.5
		c-2.9,0-4.6,2.2-4.9,4.5H97.8z"/>
	<path class="st81" d="M116.3,34.8v-2.2h-0.1c-1.1,1.6-3.1,2.7-5.8,2.7c-4.1,0-7.7-3.2-7.7-8.3c0-4.7,3.4-8.2,7.9-8.2
		c2.9,0,4.6,1.2,5.6,2.7h0.1V10.9h2.6v23.9H116.3z M111,33.1c2.9,0,5.5-2.5,5.5-5.9c0-3.6-2.5-6-5.4-6c-3.8,0-5.6,3-5.6,5.9
		S107.2,33.1,111,33.1z"/>
	<path class="st81" d="M139.5,10.9v10.7h0.1c1-1.5,2.7-2.7,5.6-2.7c4.5,0,7.9,3.4,7.9,8.2c0,5-3.6,8.3-7.7,8.3
		c-2.7,0-4.7-1.1-5.8-2.7h-0.1v2.2h-2.6V10.9H139.5z M144.7,21.2c-3,0-5.4,2.4-5.4,6c0,3.4,2.6,5.9,5.5,5.9c3.7,0,5.5-3.1,5.5-6
		S148.5,21.2,144.7,21.2z"/>
	<path class="st81" d="M156.6,42.6l2.9-7.8l-5.6-15.4h2.7l3.2,9c0.3,1,0.7,2.1,1,3.2h0c0.3-1.1,0.7-2.2,1-3.2l3.2-9h2.7l-8.6,23.2
		H156.6z"/>
</g>
</svg>
